<?xml version="1.0" encoding="UTF-8" standalone="no"?>
<svg
   id="Camada_1"
   version="1.1"
   viewBox="0 0 560 219"
   sodipodi:docname="Logo nova.svg"
   inkscape:version="1.4.2 (2aeb623e1d, 2025-05-12)"
   xmlns:inkscape="http://www.inkscape.org/namespaces/inkscape"
   xmlns:sodipodi="http://sodipodi.sourceforge.net/DTD/sodipodi-0.dtd"
   xmlns:xlink="http://www.w3.org/1999/xlink"
   xmlns="http://www.w3.org/2000/svg"
   xmlns:svg="http://www.w3.org/2000/svg">
  <sodipodi:namedview
     id="namedview30"
     pagecolor="#ffffff"
     bordercolor="#111111"
     borderopacity="1"
     inkscape:showpageshadow="0"
     inkscape:pageopacity="0"
     inkscape:pagecheckerboard="1"
     inkscape:deskcolor="#d1d1d1"
     inkscape:zoom="1.5035714"
     inkscape:cx="279.66746"
     inkscape:cy="109.40618"
     inkscape:window-width="1920"
     inkscape:window-height="1011"
     inkscape:window-x="0"
     inkscape:window-y="32"
     inkscape:window-maximized="1"
     inkscape:current-layer="Camada_1" />
  <!-- Generator: Adobe Illustrator 29.3.1, SVG Export Plug-In . SVG Version: 2.1.0 Build 151)  -->
  <defs
     id="defs7">
    <style
       id="style1">
      .st0 {
        clip-path: url(#clippath-6);
      }

      .st1 {
        clip-path: url(#clippath-7);
      }

      .st2 {
        clip-path: url(#clippath-4);
      }

      .st3, .st4 {
        fill: #7abfa7;
      }

      .st5 {
        clip-path: url(#clippath-1);
      }

      .st6, .st7, .st4 {
        fill-rule: evenodd;
      }

      .st6, .st8 {
        fill: #ed1e64;
      }

      .st9 {
        clip-path: url(#clippath-5);
      }

      .st10 {
        clip-path: url(#clippath-3);
      }

      .st7, .st11 {
        fill: #2a6aa9;
      }

      .st12 {
        clip-rule: evenodd;
        fill: none;
      }

      .st13 {
        clip-path: url(#clippath-2);
      }

      .st14 {
        clip-path: url(#clippath);
      }
    </style>
    <clipPath
       id="clippath">
      <path
         class="st12"
         d="M48.9,200.4c7.4,0,14.2-2.7,19.5-7.1-5.3,4.4-12.1,7.1-19.5,7.1Z"
         id="path1" />
    </clipPath>
    <clipPath
       id="clippath-1">
      <path
         class="st12"
         d="M32.4,195.6c-1.1-.7-2.1-1.4-3.1-2.2,1,.8,2,1.6,3.1,2.2h0Z"
         id="path2" />
    </clipPath>
    <clipPath
       id="clippath-2">
      <path
         class="st12"
         d="M48.9,200.4c-6.1,0-11.7-1.8-16.5-4.8h0c4.7,3.1,10.4,4.8,16.5,4.8Z"
         id="path3" />
    </clipPath>
    <clipPath
       id="clippath-3">
      <path
         class="st12"
         d="M48.9,169.9h0l7.3-6.5-7.3,6.5h0ZM63.1,143c-4.2-2.2-9.1-3.5-14.2-3.5,5.1,0,10,1.3,14.2,3.5h0ZM41.7,140.3s0,0,0,0c0,0,0,0,0,0h0ZM41.8,140.3s0,0,0,0c0,0,0,0,0,0h0ZM41.9,140.3s0,0,0,0c0,0,0,0,0,0h0ZM41.9,140.3c1.8-.4,3.7-.7,5.7-.8-1.9,0-3.9.3-5.7.8h0ZM47.6,139.5c0,0,.1,0,.2,0,0,0-.1,0-.2,0h0ZM47.8,139.5c0,0,.2,0,.3,0,0,0-.2,0-.3,0h0ZM48.1,139.5h0c.3,0,.5,0,.8,0-.3,0-.5,0-.8,0Z"
         id="path4" />
    </clipPath>
    <clipPath
       id="clippath-4">
      <path
         class="st12"
         d="M273.8,199.9c5.1-.9,9.9-3.2,13.9-6.5-3.9,3.2-8.7,5.5-13.9,6.5Z"
         id="path5" />
    </clipPath>
    <clipPath
       id="clippath-5">
      <path
         class="st12"
         d="M287.7,193.5s0,0,0,0c0,0,0,0,0,0Z"
         id="path6" />
    </clipPath>
    <clipPath
       id="clippath-6">
      <path
         class="st12"
         d="M293.8,186.6c1.5-2.2,2.7-4.7,3.5-7.4.5-1.6.9-3.2,1.1-4.8-.7,4.5-2.3,8.6-4.7,12.2h0Z"
         id="path7" />
    </clipPath>
    <clipPath
       id="clippath-7">
      <polygon
         class="st12"
         points="407.2 160.1 407.2 160.1 386.5 160.1 386.5 159.8 407.2 159.8 407.2 160.1"
         id="polygon7" />
    </clipPath>
  </defs>
  <polygon
     class="st6"
     points="235.4,200.4 214.7,200.4 193.6,159.4 204,139.3 "
     id="polygon8"
     transform="matrix(1.0505767,0,0,1.0505767,-16.227523,-10.181082)" />
  <polygon
     class="st4"
     points="483.4,200.4 503.6,159.8 523.9,200.4 "
     id="polygon9"
     transform="matrix(1.0505767,0,0,1.0505767,-16.227523,-10.181082)" />
  <polygon
     class="st6"
     points="503.6,159.8 513.9,139.3 544.4,200.4 523.9,200.4 "
     id="polygon10"
     transform="matrix(1.0505767,0,0,1.0505767,-16.227523,-10.181082)" />
  <path
     class="st4"
     d="m 60.989862,28.795312 c -0.420231,0 -0.840461,0 -1.260692,0 v 52.423775 c 0.420231,0 0.840461,0 1.260692,0 14.497958,0 26.264417,-11.766459 26.264417,-26.264416 0,-14.497958 -11.766459,-26.264417 -26.264417,-26.264417 z"
     id="path10"
     style="stroke-width:1.05058" />
  <polygon
     class="st4"
     points="96.5,111.3 121.2,62 145.9,111.3 "
     id="polygon11"
     transform="matrix(1.0505767,0,0,1.0505767,-16.227523,-10.181082)" />
  <rect
     class="st11"
     x="354.10077"
     y="136.16426"
     width="20.486244"
     height="63.980122"
     id="rect11"
     style="stroke-width:1.05058" />
  <rect
     class="st3"
     x="389.82037"
     y="136.16426"
     width="21.746937"
     height="63.980122"
     id="rect12"
     style="stroke-width:1.05058" />
  <rect
     class="st8"
     x="389.82037"
     y="136.16426"
     width="21.746937"
     height="21.746937"
     id="rect13"
     style="stroke-width:1.05058" />
  <path
     class="st6"
     d="m 35.145676,168.31189 23.743033,-21.43177 c -5.88323,-6.51356 -14.287843,-10.61082 -23.743033,-10.61082 -17.649687,0 -32.0425881,14.28785 -32.0425881,32.04259 0,17.75475 14.2878421,32.04259 32.0425881,32.04259 17.754746,0 32.042588,-14.28784 32.042588,-32.04259 v 0 z"
     id="path13"
     style="stroke-width:1.05058" />
  <g
     class="st14"
     clip-path="url(#clippath)"
     id="g13"
     transform="matrix(1.0505767,0,0,1.0505767,-16.227523,-10.181082)">
    <image
       width="12"
       height="6"
       transform="matrix(2,0,0,-2.1,46.5,203)"
       xlink:href="Logo%20nova-1.png"
       id="image13" />
  </g>
  <g
     class="st5"
     clip-path="url(#clippath-1)"
     id="g14"
     transform="matrix(1.0505767,0,0,1.0505767,-16.227523,-10.181082)">
    <image
       width="4"
       height="4"
       transform="matrix(2.1,0,0,-2.1,26.3,199.1)"
       xlink:href="Logo%20nova-2.png"
       id="image14" />
  </g>
  <g
     class="st13"
     clip-path="url(#clippath-2)"
     id="g15"
     transform="matrix(1.0505767,0,0,1.0505767,-16.227523,-10.181082)">
    <image
       width="12"
       height="5"
       transform="matrix(2,0,0,-2.1,28.4,203)"
       xlink:href="Logo%20nova-3.png"
       id="image15" />
  </g>
  <g
     class="st10"
     clip-path="url(#clippath-3)"
     id="g16"
     transform="matrix(1.0505767,0,0,1.0505767,-16.227523,-10.181082)">
    <image
       width="14"
       height="18"
       transform="matrix(2,0,0,-2,38.4,172.8)"
       xlink:href="Logo%20nova-4.png"
       id="image16" />
  </g>
  <path
     class="st7"
     d="m 3.1030879,168.31189 v 0 c 0,17.64969 14.2878421,32.04259 32.0425881,32.04259 17.754746,0 32.042588,-14.28784 32.042588,-32.04259 v 0 c 0,0 -32.042588,0 -32.042588,0 z"
     id="path16"
     style="stroke-width:1.05058" />
  <polygon
     class="st4"
     points="215.8,200.4 153,200.4 184.4,139.3 "
     id="polygon16"
     transform="matrix(1.0505767,0,0,1.0505767,-16.227523,-10.181082)" />
  <path
     class="st4"
     d="m 456.53198,168.31189 23.74303,-21.43177 c -5.88323,-6.51356 -14.28785,-10.61082 -23.74303,-10.61082 -17.64969,0 -32.04259,14.28785 -32.04259,32.04259 0,17.75475 14.28784,32.04259 32.04259,32.04259 17.75474,0 32.04259,-14.28784 32.04259,-32.04259 v 0 z"
     id="path17"
     style="stroke-width:1.05058" />
  <path
     class="st7"
     d="m 424.48939,168.31189 v 0 c 0,17.64969 14.28784,32.04259 32.04259,32.04259 17.75474,0 32.04259,-14.28784 32.04259,-32.04259 v 0 c 0,0 -32.04259,0 -32.04259,0 z"
     id="path18"
     style="stroke-width:1.05058" />
  <polygon
     class="st4"
     points="311,139.2 372.1,200.2 311,200.2 "
     id="polygon18"
     transform="matrix(1.0505767,0,0,1.0505767,-16.227523,-10.181082)" />
  <path
     class="st7"
     d="m 275.41256,137.84517 -8.40462,28.15546 -8.29955,-28.89086 c -14.3929,3.15173 -25.10878,15.96877 -25.10878,31.20212 0,15.23336 14.28784,32.04259 32.04259,32.04259 17.75474,0 31.93753,-14.28784 31.93753,-32.04259 0,-14.3929 -9.56025,-26.26441 -22.27222,-30.46672 z"
     id="path19"
     style="stroke-width:1.05058" />
  <g
     class="st2"
     clip-path="url(#clippath-4)"
     id="g19"
     transform="matrix(1.0505767,0,0,1.0505767,-16.227523,-10.181082)">
    <image
       width="10"
       height="6"
       transform="matrix(2,0,0,-2.1,269.9,203)"
       xlink:href="Logo%20nova-5.png"
       id="image19" />
  </g>
  <g
     class="st9"
     clip-path="url(#clippath-5)"
     id="g20"
     transform="matrix(1.0505767,0,0,1.0505767,-16.227523,-10.181082)">
    <image
       width="3"
       height="3"
       transform="matrix(2.1,0,0,-2.1,283.8,197)"
       xlink:href="Logo%20nova-6.png"
       id="image20" />
  </g>
  <g
     class="st0"
     clip-path="url(#clippath-6)"
     id="g21"
     transform="matrix(1.0505767,0,0,1.0505767,-16.227523,-10.181082)">
    <image
       width="6"
       height="9"
       transform="matrix(2.1,0,0,-2,289.8,189.1)"
       xlink:href="Logo%20nova-7.png"
       id="image21" />
  </g>
  <path
     class="st4"
     d="m 255.87184,198.88367 c 16.80922,5.35795 34.87914,-3.88713 40.23708,-20.69635 5.35794,-16.80923 -3.88713,-34.87915 -20.69636,-40.23709 z"
     id="path21"
     style="stroke-width:1.05058" />
  <path
     class="st7"
     d="m 142.82979,168.73212 c 0,17.96487 -14.60303,32.56788 -32.56788,32.56788 -17.964864,0 -32.567879,-14.60301 -32.567879,-32.56788 0,-17.96485 14.603015,-32.56788 32.567879,-32.56788 17.96485,0 32.56788,14.60303 32.56788,32.56788 z"
     id="path22"
     style="stroke-width:1.05058" />
  <path
     class="st4"
     d="m 128.54194,168.73212 c 0,10.08554 -8.1945,18.28004 -18.28003,18.28004 -10.08554,0 -18.280036,-8.1945 -18.280036,-18.28004 0,-10.08553 8.194496,-18.28003 18.280036,-18.28003 10.08553,0 18.28003,8.1945 18.28003,18.28003 z"
     id="path23"
     style="stroke-width:1.05058" />
  <g
     class="st1"
     clip-path="url(#clippath-7)"
     id="g23"
     transform="matrix(1.0505767,0,0,1.0505767,-16.227523,-10.181082)">
    <image
       width="14"
       height="3"
       transform="matrix(2,0,0,-2.1,382.5,162.9)"
       xlink:href="Logo%20nova-8.png"
       id="image23" />
  </g>
  <path
     class="st4"
     d="m 460.10394,28.690254 c -0.42024,0 -0.84047,0 -1.26069,0 V 81.11403 c 0.42022,0 0.84045,0 1.26069,0 14.49795,0 26.26442,-11.766459 26.26442,-26.264417 0,-14.497958 -11.76647,-26.264416 -26.26442,-26.264416 z"
     id="path24"
     style="stroke-width:1.05058" />
  <path
     class="st4"
     d="m 308.29561,90.569219 c 7.35404,-6.513575 11.97658,-15.968765 11.97658,-26.579589 0,-19.540726 -15.86371,-35.299376 -35.29938,-35.299376 -19.43567,0 -20.06602,4.622537 -26.5796,12.081631 l 49.9024,49.902392 z"
     id="path25"
     style="stroke-width:1.05058" />
  <rect
     class="st11"
     x="30.838312"
     y="28.690256"
     width="33.093163"
     height="78.16291"
     id="rect25"
     style="stroke-width:1.05058" />
  <rect
     class="st11"
     x="185.79837"
     y="37.094868"
     width="26.579588"
     height="69.653236"
     id="rect26"
     style="stroke-width:1.05058" />
  <rect
     class="st3"
     x="501.49664"
     y="28.690256"
     width="26.579588"
     height="78.16291"
     id="rect27"
     style="stroke-width:1.05058" />
  <path
     class="st7"
     d="m 414.92914,67.771706 c 0,21.536821 -17.54463,39.081454 -39.08145,39.081454 -21.53682,0 -39.08145,-17.439574 -39.08145,-39.081454 0,-21.64188 17.43957,-39.081452 39.08145,-39.081452 21.64187,0 39.08145,17.439572 39.08145,39.081452 z"
     id="path27"
     style="stroke-width:1.05058" />
  <path
     class="st4"
     d="m 397.80474,67.771706 c 0,12.081632 -9.77036,21.957052 -21.95705,21.957052 -12.18669,0 -21.95705,-9.87542 -21.95705,-21.957052 0,-12.081631 9.77036,-21.957052 21.95705,-21.957052 12.18669,0 21.95705,9.770363 21.95705,21.957052 z"
     id="path28"
     style="stroke-width:1.05058" />
  <rect
     class="st8"
     x="501.49664"
     y="28.690256"
     width="26.579588"
     height="26.579588"
     id="rect28"
     style="stroke-width:1.05058" />
  <polygon
     class="st7"
     points="259.2,40.1 330.5,111.3 259.2,111.3 "
     id="polygon28"
     transform="matrix(1.0505767,0,0,1.0505767,-16.227523,-10.181082)" />
  <rect
     class="st11"
     x="429.95239"
     y="28.690256"
     width="33.093163"
     height="78.16291"
     id="rect29"
     style="stroke-width:1.05058" />
  <rect
     class="st3"
     x="159.84912"
     y="28.690256"
     width="78.478073"
     height="26.264416"
     id="rect30"
     style="stroke-width:1.05058" />
  <polygon
     class="st6"
     points="121.2,62 133.7,37 170.9,111.3 145.9,111.3 "
     id="polygon30"
     transform="matrix(1.0505767,0,0,1.0505767,-16.227523,-10.181082)" />
</svg>
